<?xml version="1.0" encoding="UTF-8" standalone="no"?>
<!DOCTYPE svg PUBLIC "-//W3C//DTD SVG 1.1//EN" "http://www.w3.org/Graphics/SVG/1.1/DTD/svg11.dtd">
<svg xmlns="http://www.w3.org/2000/svg" version="1.1" viewBox="0.00 0.00 256.00 256.00">
<path stroke="#c3afff" stroke-width="2.00" fill="none" stroke-linecap="butt" vector-effect="non-scaling-stroke" d="
  M 197.43 64.79
  C 157.91 37.70 94.81 36.89 53.89 63.13
  C 36.22 74.46 21.31 94.31 24.12 116.51
  C 25.54 127.79 34.21 136.39 45.30 138.42
  C 60.56 141.20 77.97 133.11 91.94 126.71
  Q 113.13 117.01 136.29 119.52
  C 138.72 119.79 140.81 120.60 142.73 121.90
  A 2.35 2.35 0.0 0 1 143.55 124.81
  C 141.80 128.72 125.27 127.19 122.51 127.26
  C 112.07 127.52 92.41 132.33 93.28 146.43
  C 93.83 155.44 102.66 159.45 110.50 160.48
  C 134.01 163.56 181.08 157.17 178.04 122.77
  C 176.64 106.89 164.08 96.56 149.47 92.59
  C 128.33 86.85 104.55 88.39 84.82 95.92
  Q 76.13 99.24 67.76 103.27
  Q 64.58 104.81 61.44 104.51
  A 1.98 1.98 0.0 0 1 59.95 101.49
  C 64.05 94.95 73.22 90.06 80.00 87.00
  C 104.96 75.75 133.92 74.89 159.98 83.33
  C 179.05 89.51 209.03 110.28 193.82 134.35
  Q 191.23 138.44 188.41 142.38
  C 175.76 160.03 187.32 178.10 197.32 193.15
  Q 199.32 196.16 200.05 200.37
  A 1.86 1.86 0.0 0 1 198.25 202.55
  Q 194.75 202.62 191.48 200.23
  Q 184.00 194.76 177.06 188.62
  Q 167.41 180.08 164.34 178.12
  Q 151.51 169.93 136.01 169.24
  Q 133.94 169.14 124.01 169.77
  C 110.46 170.62 94.10 170.24 84.67 158.53
  Q 79.99 152.71 82.34 142.89
  A 3.39 3.39 0.0 0 0 79.61 138.76
  L 78.41 138.55
  Q 73.95 137.79 73.07 142.23
  C 67.21 171.81 99.26 180.47 121.25 179.14
  C 134.85 178.32 145.40 177.90 157.46 184.81
  Q 161.26 186.99 170.08 194.82
  Q 177.54 201.45 185.45 207.55
  C 191.72 212.39 205.59 215.23 208.95 205.64
  C 210.78 200.44 208.31 194.20 205.51 189.49
  Q 201.51 182.77 195.43 171.38
  C 192.30 165.51 190.98 158.79 193.25 152.43
  C 194.95 147.68 200.26 142.15 203.16 136.94
  C 209.85 124.91 207.96 110.92 199.56 99.68
  C 189.19 85.81 173.44 76.96 156.92 72.57
  C 127.22 64.67 92.97 67.82 66.28 83.75
  C 60.36 87.29 54.21 91.90 50.86 98.08
  C 48.29 102.84 48.92 108.57 53.11 112.01
  C 60.58 118.15 75.57 109.90 83.05 106.67
  Q 103.76 97.74 126.00 98.49
  C 139.70 98.95 160.26 102.02 166.96 116.29
  Q 170.50 123.83 168.10 131.30
  C 162.29 149.47 132.78 152.73 117.37 152.09
  C 113.49 151.93 103.50 151.10 102.61 146.22
  C 101.41 139.61 115.81 137.13 120.00 136.72
  C 129.97 135.74 145.29 139.85 151.61 129.41
  Q 153.71 125.95 153.25 122.46
  C 151.99 112.79 138.86 110.19 131.24 109.84
  C 115.28 109.09 102.36 112.21 87.46 118.52
  C 74.43 124.05 48.44 137.92 36.58 123.16
  C 32.85 118.51 32.20 112.16 33.29 106.12
  C 35.88 91.87 45.33 79.95 57.27 72.01
  C 93.15 48.13 146.76 47.47 184.26 67.74
  C 211.50 82.46 233.26 112.76 215.67 143.67
  Q 210.89 152.07 201.94 159.29
  A 3.51 3.50 -39.3 0 0 201.44 164.25
  L 202.14 165.11
  A 4.55 4.54 51.2 0 0 208.44 165.80
  Q 218.71 157.78 224.71 146.52
  C 241.56 114.93 223.99 82.99 197.43 64.79"
/>
<path fill="#875fff" d="
  M 0.00 0.00
  L 256.00 0.00
  L 256.00 256.00
  L 0.00 256.00
  L 0.00 0.00
  Z
  M 197.43 64.79
  C 157.91 37.70 94.81 36.89 53.89 63.13
  C 36.22 74.46 21.31 94.31 24.12 116.51
  C 25.54 127.79 34.21 136.39 45.30 138.42
  C 60.56 141.20 77.97 133.11 91.94 126.71
  Q 113.13 117.01 136.29 119.52
  C 138.72 119.79 140.81 120.60 142.73 121.90
  A 2.35 2.35 0.0 0 1 143.55 124.81
  C 141.80 128.72 125.27 127.19 122.51 127.26
  C 112.07 127.52 92.41 132.33 93.28 146.43
  C 93.83 155.44 102.66 159.45 110.50 160.48
  C 134.01 163.56 181.08 157.17 178.04 122.77
  C 176.64 106.89 164.08 96.56 149.47 92.59
  C 128.33 86.85 104.55 88.39 84.82 95.92
  Q 76.13 99.24 67.76 103.27
  Q 64.58 104.81 61.44 104.51
  A 1.98 1.98 0.0 0 1 59.95 101.49
  C 64.05 94.95 73.22 90.06 80.00 87.00
  C 104.96 75.75 133.92 74.89 159.98 83.33
  C 179.05 89.51 209.03 110.28 193.82 134.35
  Q 191.23 138.44 188.41 142.38
  C 175.76 160.03 187.32 178.10 197.32 193.15
  Q 199.32 196.16 200.05 200.37
  A 1.86 1.86 0.0 0 1 198.25 202.55
  Q 194.75 202.62 191.48 200.23
  Q 184.00 194.76 177.06 188.62
  Q 167.41 180.08 164.34 178.12
  Q 151.51 169.93 136.01 169.24
  Q 133.94 169.14 124.01 169.77
  C 110.46 170.62 94.10 170.24 84.67 158.53
  Q 79.99 152.71 82.34 142.89
  A 3.39 3.39 0.0 0 0 79.61 138.76
  L 78.41 138.55
  Q 73.95 137.79 73.07 142.23
  C 67.21 171.81 99.26 180.47 121.25 179.14
  C 134.85 178.32 145.40 177.90 157.46 184.81
  Q 161.26 186.99 170.08 194.82
  Q 177.54 201.45 185.45 207.55
  C 191.72 212.39 205.59 215.23 208.95 205.64
  C 210.78 200.44 208.31 194.20 205.51 189.49
  Q 201.51 182.77 195.43 171.38
  C 192.30 165.51 190.98 158.79 193.25 152.43
  C 194.95 147.68 200.26 142.15 203.16 136.94
  C 209.85 124.91 207.96 110.92 199.56 99.68
  C 189.19 85.81 173.44 76.96 156.92 72.57
  C 127.22 64.67 92.97 67.82 66.28 83.75
  C 60.36 87.29 54.21 91.90 50.86 98.08
  C 48.29 102.84 48.92 108.57 53.11 112.01
  C 60.58 118.15 75.57 109.90 83.05 106.67
  Q 103.76 97.74 126.00 98.49
  C 139.70 98.95 160.26 102.02 166.96 116.29
  Q 170.50 123.83 168.10 131.30
  C 162.29 149.47 132.78 152.73 117.37 152.09
  C 113.49 151.93 103.50 151.10 102.61 146.22
  C 101.41 139.61 115.81 137.13 120.00 136.72
  C 129.97 135.74 145.29 139.85 151.61 129.41
  Q 153.71 125.95 153.25 122.46
  C 151.99 112.79 138.86 110.19 131.24 109.84
  C 115.28 109.09 102.36 112.21 87.46 118.52
  C 74.43 124.05 48.44 137.92 36.58 123.16
  C 32.85 118.51 32.20 112.16 33.29 106.12
  C 35.88 91.87 45.33 79.95 57.27 72.01
  C 93.15 48.13 146.76 47.47 184.26 67.74
  C 211.50 82.46 233.26 112.76 215.67 143.67
  Q 210.89 152.07 201.94 159.29
  A 3.51 3.50 -39.3 0 0 201.44 164.25
  L 202.14 165.11
  A 4.55 4.54 51.2 0 0 208.44 165.80
  Q 218.71 157.78 224.71 146.52
  C 241.56 114.93 223.99 82.99 197.43 64.79
  Z"
/>
<path fill="#ffffff" d="
  M 53.89 63.13
  C 94.81 36.89 157.91 37.70 197.43 64.79
  C 223.99 82.99 241.56 114.93 224.71 146.52
  Q 218.71 157.78 208.44 165.80
  A 4.55 4.54 51.2 0 1 202.14 165.11
  L 201.44 164.25
  A 3.51 3.50 -39.3 0 1 201.94 159.29
  Q 210.89 152.07 215.67 143.67
  C 233.26 112.76 211.50 82.46 184.26 67.74
  C 146.76 47.47 93.15 48.13 57.27 72.01
  C 45.33 79.95 35.88 91.87 33.29 106.12
  C 32.20 112.16 32.85 118.51 36.58 123.16
  C 48.44 137.92 74.43 124.05 87.46 118.52
  C 102.36 112.21 115.28 109.09 131.24 109.84
  C 138.86 110.19 151.99 112.79 153.25 122.46
  Q 153.71 125.95 151.61 129.41
  C 145.29 139.85 129.97 135.74 120.00 136.72
  C 115.81 137.13 101.41 139.61 102.61 146.22
  C 103.50 151.10 113.49 151.93 117.37 152.09
  C 132.78 152.73 162.29 149.47 168.10 131.30
  Q 170.50 123.83 166.96 116.29
  C 160.26 102.02 139.70 98.95 126.00 98.49
  Q 103.76 97.74 83.05 106.67
  C 75.57 109.90 60.58 118.15 53.11 112.01
  C 48.92 108.57 48.29 102.84 50.86 98.08
  C 54.21 91.90 60.36 87.29 66.28 83.75
  C 92.97 67.82 127.22 64.67 156.92 72.57
  C 173.44 76.96 189.19 85.81 199.56 99.68
  C 207.96 110.92 209.85 124.91 203.16 136.94
  C 200.26 142.15 194.95 147.68 193.25 152.43
  C 190.98 158.79 192.30 165.51 195.43 171.38
  Q 201.51 182.77 205.51 189.49
  C 208.31 194.20 210.78 200.44 208.95 205.64
  C 205.59 215.23 191.72 212.39 185.45 207.55
  Q 177.54 201.45 170.08 194.82
  Q 161.26 186.99 157.46 184.81
  C 145.40 177.90 134.85 178.32 121.25 179.14
  C 99.26 180.47 67.21 171.81 73.07 142.23
  Q 73.95 137.79 78.41 138.55
  L 79.61 138.76
  A 3.39 3.39 0.0 0 1 82.34 142.89
  Q 79.99 152.71 84.67 158.53
  C 94.10 170.24 110.46 170.62 124.01 169.77
  Q 133.94 169.14 136.01 169.24
  Q 151.51 169.93 164.34 178.12
  Q 167.41 180.08 177.06 188.62
  Q 184.00 194.76 191.48 200.23
  Q 194.75 202.62 198.25 202.55
  A 1.86 1.86 0.0 0 0 200.05 200.37
  Q 199.32 196.16 197.32 193.15
  C 187.32 178.10 175.76 160.03 188.41 142.38
  Q 191.23 138.44 193.82 134.35
  C 209.03 110.28 179.05 89.51 159.98 83.33
  C 133.92 74.89 104.96 75.75 80.00 87.00
  C 73.22 90.06 64.05 94.95 59.95 101.49
  A 1.98 1.98 0.0 0 0 61.44 104.51
  Q 64.58 104.81 67.76 103.27
  Q 76.13 99.24 84.82 95.92
  C 104.55 88.39 128.33 86.85 149.47 92.59
  C 164.08 96.56 176.64 106.89 178.04 122.77
  C 181.08 157.17 134.01 163.56 110.50 160.48
  C 102.66 159.45 93.83 155.44 93.28 146.43
  C 92.41 132.33 112.07 127.52 122.51 127.26
  C 125.27 127.19 141.80 128.72 143.55 124.81
  A 2.35 2.35 0.0 0 0 142.73 121.90
  C 140.81 120.60 138.72 119.79 136.29 119.52
  Q 113.13 117.01 91.94 126.71
  C 77.97 133.11 60.56 141.20 45.30 138.42
  C 34.21 136.39 25.54 127.79 24.12 116.51
  C 21.31 94.31 36.22 74.46 53.89 63.13
  Z"
/>
</svg>
